<?xml version="1.0" standalone="no"?>
<!DOCTYPE svg PUBLIC "-//W3C//DTD SVG 20010904//EN"
 "http://www.w3.org/TR/2001/REC-SVG-20010904/DTD/svg10.dtd">
<svg version="1.0" xmlns="http://www.w3.org/2000/svg"
 width="128.000000pt" height="128.000000pt" viewBox="0 0 128.000000 128.000000"
 preserveAspectRatio="xMidYMid meet">
<metadata>
Created by potrace 1.14, written by Peter Selinger 2001-2017
</metadata>
<g transform="translate(0.000000,128.000000) scale(0.100000,-0.100000)"
fill="#000000" stroke="none">
<path d="M391 1054 c-106 -53 -155 -162 -129 -285 2 -9 -7 -15 -27 -17 -137
-11 -222 -96 -223 -223 0 -136 110 -241 254 -242 48 0 75 6 127 31 57 26 92
56 239 205 180 181 222 211 311 223 83 12 173 -30 215 -98 78 -128 -29 -305
-176 -292 -65 5 -172 57 -172 83 0 28 -40 70 -70 75 -72 11 -119 -79 -70 -132
20 -21 36 -26 72 -23 10 1 52 -15 95 -36 69 -34 85 -38 152 -38 89 0 135 19
192 77 53 55 72 101 75 183 2 57 -2 80 -19 113 -58 111 -145 164 -269 164 -61
0 -80 -5 -146 -37 -67 -33 -96 -59 -241 -206 -189 -192 -241 -225 -332 -217
-93 9 -162 78 -162 163 0 89 63 150 153 149 73 0 116 -23 124 -67 11 -60 84
-81 131 -37 50 47 13 134 -56 133 -59 -1 -109 66 -109 146 0 41 38 105 76 129
45 29 122 32 162 6 57 -37 66 -51 54 -79 -27 -58 -2 -114 55 -127 21 -6 82 24
84 39 0 5 3 20 5 35 3 21 -3 36 -25 60 -16 18 -46 52 -67 76 -76 87 -188 113
-283 66z m326 -180 c8 -20 -8 -48 -30 -52 -22 -5 -42 35 -26 54 16 19 48 18
56 -2z m-248 -231 c12 -23 -4 -53 -29 -53 -25 0 -41 29 -29 52 12 23 45 23 58
1z m286 -208 c0 -23 -5 -31 -21 -33 -29 -4 -44 17 -33 46 14 36 54 26 54 -13z"/>
</g>
</svg>
